<svg xmlns="http://www.w3.org/2000/svg" style="isolation:isolate" width="512" height="512"><path d="M256 379.6a123.7 123.7 0 0 0 0-247.2 123.7 123.7 0 0 0 0 247.2Zm0-211.4a87.8 87.8 0 1 1 .1 175.5 87.8 87.8 0 0 1-.1-175.5ZM274.1 75V18.1c0-10.2-8-18.1-18.1-18.1-10.2 0-18.1 8-18.1 18.1v57c0 10 8 18 18.1 18 10.2 0 18.1-8 18.1-18ZM237.9 437v56.9c0 10.2 8 18.1 18.1 18.1 10.2 0 18.1-8 18.1-18.1v-57c0-10-8-18-18.1-18-10.2 0-18.1 8-18.1 18ZM396.8 140.8l40.2-40.2A18.1 18.1 0 0 0 411.4 75l-40.2 40.2a18.1 18.1 0 0 0 25.6 25.6ZM75 437c3.6 3.5 8 5.3 12.8 5.3 4.4 0 9.3-1.8 12.8-5.3l40.2-40.2a18.1 18.1 0 0 0-25.6-25.6L75 411.4c-7 7-7 18.5 0 25.6ZM512 256c0-10.2-8-18.1-18.1-18.1h-57c-10 0-18 8-18 18.1 0 10.2 8 18.1 18 18.1h57c9.7 0 18.1-8 18.1-18.1ZM18.1 274.1h57c10 0 18-8 18-18.1 0-10.2-8-18.1-18-18.1H18C7.9 237.9 0 245.9 0 256c0 10.2 8.4 18.1 18.1 18.1ZM424.2 442.3a18.1 18.1 0 0 0 12.8-30.9l-40.2-40.2a18.1 18.1 0 0 0-25.6 25.6l40.2 40.2c3.5 3.5 8.4 5.3 12.8 5.3ZM140.8 140.8c7-7 7-18.5 0-25.6L100.6 75A18.1 18.1 0 0 0 75 100.6l40.2 40.2c3.5 3.5 8 5.3 12.8 5.3 4.9 0 9.3-1.8 12.8-5.3Z"/></svg>