<svg xmlns="http://www.w3.org/2000/svg" style="isolation:isolate" width="514.5" height="512"><path d="M513.5 305.4c-1.7-4.1-5.5-7-10-7.6-41-5.5-76.2-32.5-92-70.6-15.7-38-10-82.1 15.2-115a12.6 12.6 0 0 0-8.3-20 141 141 0 0 0-156 108.5A109 109 0 0 0 181 164 106.5 106.5 0 0 0 73.6 270a76.3 76.3 0 0 0-71.1 75.4 76.5 76.5 0 0 0 77 75.6h206.8a98.3 98.3 0 0 0 86.3-50.6A140.2 140.2 0 0 0 512 318c2.7-3.6 3.3-8.3 1.6-12.5ZM286.3 396H79.5c-28.6 0-51.9-22.7-51.9-50.5a51.3 51.3 0 0 1 58.1-50 12.6 12.6 0 0 0 14-14.4c-.7-4-1-7.9-1-11.6 0-44.2 37-80.2 82.3-80.2a82.5 82.5 0 0 1 79.3 58.3c2.1 5.4 7.8 8.6 13.7 7.6A72 72 0 0 1 359 325a72 72 0 0 1-72.8 70.9Zm158-56.8c-20 8.3-41.5 10.8-62.5 7.4 1.6-6.9 2.5-14.1 2.5-21.5 0-53-44-96-98-96H284a115.5 115.5 0 0 1 110.4-112.8 141.6 141.6 0 0 0-6 120.6 141.6 141.6 0 0 0 89.5 81 116 116 0 0 1-33.6 21.3Z"/></svg>